<?xml version="1.0" encoding="UTF-8"?>
<svg version="1.1" xmlns="http://www.w3.org/2000/svg" width="50" height="50" >
<path stroke-width='1.5' d="M0 0 C3.09530729 -0.27311535 4.33437355 -1.2229157 7 -3 C14.40091249 -4.02823663 19.67122177 -2.82114912 26 1 C26 1.99 26 2.98 26 4 C22.64366165 3.45865511 19.66631763 2.50713737 16.5 1.3125 C13.52605639 0.30313172 12.3666327 -0.08332561 9.25 0.625 C7.67658587 1.58653086 6.11488806 2.56737945 4.5625 3.5625 C1.68164679 5.17858838 -0.73990924 5.62091968 -4 6 C-4 6.33 -4 6.66 -4 7 C0.29 7 4.58 7 9 7 C8.67 7.99 8.34 8.98 8 10 C-3.02242189 10.87128304 -10.0935465 10.39688511 -19 3 C-15.8685777 6.42379097 -12.38830271 8.81879601 -8.4375 11.1875 C-7.86064453 11.54263672 -7.28378906 11.89777344 -6.68945312 12.26367188 C-4.14404404 13.81088132 -1.83653608 15.05448797 1 16 C4.10414874 14.58500343 7.01820706 12.91960306 9.9921875 11.25 C13.33840139 9.85936566 14.63188355 9.81259623 18 11 C18.99 11.66 19.98 12.32 21 13 C21 13.99 21 14.98 21 16 C19.5459375 15.3503125 19.5459375 15.3503125 18.0625 14.6875 C15.43447812 13.91019775 14.37488315 13.82922746 11.84765625 14.98046875 C10.40284381 15.88696794 8.98443399 16.83749361 7.6015625 17.8359375 C3.6512285 19.60350436 0.24939842 19.8002778 -4 19 C-7.42818723 17.41110485 -10.38868487 15.34370477 -13.4375 13.125 C-14.23865234 12.56941406 -15.03980469 12.01382813 -15.86523438 11.44140625 C-18.75824593 9.41849168 -21.50057254 7.49942746 -24 5 C-24.125 2.375 -24.125 2.375 -24 0 C-15.55560351 -3.01585589 -7.90586646 -4.91445753 0 0 Z M-8 0 C-7.67 0.66 -7.34 1.32 -7 2 C-6.34 1.67 -5.68 1.34 -5 1 C-5.99 0.67 -6.98 0.34 -8 0 Z M-14 1 C-13.67 1.66 -13.34 2.32 -13 3 C-12.34 2.67 -11.68 2.34 -11 2 C-11.99 1.67 -12.98 1.34 -14 1 Z " fill="#3E51B5" transform="translate(24,31)"/>
<path stroke-width='1.5' d="M0 0 C2.31 0 4.62 0 7 0 C7.0825 0.5775 7.165 1.155 7.25 1.75 C8.20531013 4.6159304 9.78469173 5.9990764 12 8 C12.66 5.36 13.32 2.72 14 0 C15.65 0 17.3 0 19 0 C18.01 1.485 18.01 1.485 17 3 C16.7497843 6.08365871 16.7497843 6.08365871 17 9 C17.33 9.33 17.66 9.66 18 10 C20.33944736 9.71269945 22.6739143 9.38063221 25 9 C26.04214691 4.38492226 26.04214691 4.38492226 25 0 C28.55992413 -0.57418131 30.5617639 -0.85578351 34 0 C37.76386075 2.96735909 40.88958368 6.36360514 44 10 C39.01595832 16.03331362 33.58084697 21.5184171 28 27 C24.00746337 25.39600374 21.32549792 22.59822732 18.359375 19.58984375 C17.83232971 19.06234024 17.30528442 18.53483673 16.76226807 17.99134827 C15.65391275 16.87998078 14.54797989 15.76619274 13.44433594 14.65014648 C11.74729143 12.93476216 10.04229672 11.22759829 8.3359375 9.52148438 C7.25994197 8.44057649 6.18440473 7.35921217 5.109375 6.27734375 C4.59695251 5.76380844 4.08453003 5.25027313 3.55657959 4.72117615 C0 1.11606989 0 1.11606989 0 0 Z M30 2 C29.731875 3.258125 29.46375 4.51625 29.1875 5.8125 C28.58626469 8.14331635 28.07427851 9.87880874 26.8125 11.9375 C24.01973748 13.57463665 21.18017159 13.69998381 18 14 C21.60336712 19.11538777 21.60336712 19.11538777 27 21.875 C30.80374474 20.76557445 32.52662473 19.18174081 34.921875 16.07421875 C36.89963731 12.26917605 36.26580957 10.06391495 35 6 C32.60422071 3.4796037 32.60422071 3.4796037 30 2 Z M38 10 C39 12 39 12 39 12 Z " fill="#3E51B5" transform="translate(0,0)"/>
<path stroke-width='1.5' d="M0 0 C7.84179687 6.4453125 7.84179687 6.4453125 10 10 C10 10.66 10 11.32 10 12 C10.598125 12.0825 11.19625 12.165 11.8125 12.25 C14.5966296 13.20455872 15.43311142 14.57132271 17 17 C14 19 14 19 11.97363281 18.84545898 C9.50478145 17.78785974 8.81223019 16.7515441 7.421875 14.47265625 C6.98359375 13.76302734 6.5453125 13.05339844 6.09375 12.32226562 C5.6503125 11.57654297 5.206875 10.83082031 4.75 10.0625 C4.29109375 9.32064453 3.8321875 8.57878906 3.359375 7.81445312 C0 2.30047898 0 2.30047898 0 0 Z " fill="#3E51B5" transform="translate(5,8)"/>
<path stroke-width='1.5' d="M0 0 C2.625 0.375 2.625 0.375 5 1 C5.33 1.99 5.66 2.98 6 4 C5.01 5.485 5.01 5.485 4 7 C2.35 6.67 0.7 6.34 -1 6 C-1.625 4.125 -1.625 4.125 -2 2 C-1.34 1.34 -0.68 0.68 0 0 Z " fill="#3E51B5" transform="translate(28,11)"/>
</svg>
